<svg version="1.1" id="Layer_1" xmlns="http://www.w3.org/2000/svg" xmlns:xlink="http://www.w3.org/1999/xlink" x="0px" y="0px"
	 width="100%" viewBox="0 0 1080 1080" enable-background="new 0 0 1080 1080" xml:space="preserve">
<path fill="none" opacity="0" stroke="none" 
	d="
M1.000000,403.000000 
	C1.000000,268.682098 1.000000,134.864227 1.000000,1.046331 
	C1.151204,1.030887 1.302408,1.001905 1.453611,1.001905 
	C361.245453,0.999994 721.037292,1.000000 1080.914551,1.000000 
	C1080.914551,360.901459 1080.914551,720.802979 1080.914551,1080.852295 
	C721.000061,1080.852295 361.000031,1080.852295 1.000000,1080.852295 
	C1.000000,855.113525 1.000000,629.306763 1.000000,403.000000 
M470.959534,1068.950317 
	C479.314026,1068.593018 487.668549,1068.235596 496.793152,1067.929565 
	C499.134369,1067.246948 501.561523,1066.771729 503.800873,1065.843384 
	C510.816406,1062.935059 517.587219,1059.608398 522.651428,1052.724976 
	C524.515381,1050.651367 526.630249,1048.750977 528.201111,1046.474976 
	C536.164490,1034.937378 537.630310,1021.513916 539.613098,1007.584595 
	C539.694092,1006.064026 539.775024,1004.543457 539.959778,1002.530884 
	C539.978088,1002.364319 539.996399,1002.197693 540.573364,1001.452026 
	C540.994080,998.696960 541.343018,995.928650 541.848022,993.189148 
	C543.872925,982.205688 546.031250,971.246155 547.974609,960.248474 
	C549.547241,951.348511 550.848755,942.400940 552.331482,933.484619 
	C554.240540,922.004028 556.210632,910.533569 558.722290,898.548096 
	C560.145569,890.830750 561.559814,883.111755 562.995117,875.396667 
	C563.981262,870.095642 565.103027,864.817566 565.975708,859.498230 
	C567.515625,850.112671 568.815369,840.687256 570.391296,831.308044 
	C572.536072,818.542847 574.845764,805.805359 577.654236,792.564087 
	C578.023621,789.748840 579.664551,788.899780 582.418823,788.935364 
	C589.952454,789.032715 597.489319,788.882568 605.953796,788.932739 
	C616.642395,788.900452 627.330933,788.868164 638.829163,788.940491 
	C648.398071,787.358582 657.476685,784.588745 665.655212,777.802917 
	C674.058044,770.816040 680.464355,762.377808 682.934998,751.618042 
	C684.872681,743.178833 686.053650,734.560913 687.439697,726.001099 
	C690.102112,709.559387 682.461243,692.187927 663.548340,686.648010 
	C656.820129,677.366699 647.406311,673.259766 636.262085,673.056091 
	C623.514954,672.823120 610.760376,672.999207 598.005310,672.146362 
	C598.009155,671.648682 597.942261,671.138611 598.026855,670.655090 
	C601.712769,649.581116 605.342346,628.496643 609.241150,607.462036 
	C609.556030,605.763367 611.730591,604.409302 613.968384,602.952026 
	C626.322693,602.923645 638.676941,602.895203 651.962158,602.936096 
	C659.126587,602.958740 666.302612,603.235229 673.451050,602.907837 
	C677.666138,602.714783 681.837463,601.564758 686.907104,600.930481 
	C699.708435,600.204102 711.992432,597.105103 724.739380,592.627380 
	C728.834534,591.110474 733.132874,589.986328 736.982056,587.994202 
	C744.791138,583.952637 752.357117,579.441406 760.719910,574.975952 
	C773.639771,567.009888 784.756470,557.030090 794.677979,544.709839 
	C796.776611,541.776489 798.902405,538.862183 800.968933,535.906372 
	C809.184326,524.156189 815.595093,511.496796 819.157288,497.586945 
	C822.070435,486.211700 825.266846,474.799957 826.751831,463.201355 
	C828.015625,453.331024 827.918579,443.065857 826.761597,433.169708 
	C825.658630,423.735077 823.614868,414.013275 819.776184,405.402191 
	C815.547546,395.915985 809.431274,387.055542 802.959595,378.851440 
	C797.520203,371.955811 790.456421,366.304932 781.983948,363.015594 
	C781.983948,363.015594 782.045776,363.021210 781.829163,362.482910 
	C781.540649,362.225433 781.252197,361.967926 780.537537,361.230316 
	C779.716431,360.675934 778.839478,360.188568 778.082642,359.557098 
	C766.592346,349.969604 753.435608,343.472656 739.249573,339.076630 
	C721.720337,333.644623 703.614441,332.167633 685.369690,332.016998 
	C675.900635,331.938812 666.430420,331.998779 656.989441,331.139435 
	C659.148376,318.396942 661.280518,305.649841 663.474487,292.913391 
	C665.284363,282.406891 667.131592,271.906525 669.028320,261.415314 
	C670.923828,250.930923 672.901245,240.461288 674.955444,229.131439 
	C676.297180,221.205673 677.660217,213.283447 678.975891,205.353348 
	C681.147766,192.262955 683.124573,179.137680 685.490295,166.082687 
	C687.795288,153.363266 690.638306,140.741669 692.966125,128.026047 
	C695.767578,112.723351 698.268555,97.365723 700.911316,82.033897 
	C702.393433,73.435791 704.140686,64.901154 702.048645,56.091980 
	C699.596130,45.764465 689.306763,34.155285 679.994507,33.005569 
	C679.994507,33.005569 680.049805,33.004211 679.890320,32.503044 
	C679.596069,32.336952 679.301758,32.170856 678.476074,31.602381 
	C673.974609,25.474031 668.025635,20.346046 660.695129,19.682919 
	C646.860962,18.431454 632.794800,17.714771 618.981689,18.789356 
	C602.816956,20.046879 591.586426,30.550543 582.484863,43.239151 
	C574.652405,54.158470 567.017944,65.219841 559.299866,76.221161 
	C546.053467,95.102516 532.866699,114.026047 519.541687,132.851730 
	C512.853577,142.300674 505.916321,151.573227 498.949982,160.180634 
	C497.190247,154.877060 495.467407,149.560913 493.663452,144.272430 
	C489.372589,131.693176 485.124084,119.098511 480.700226,106.565926 
	C477.912079,98.667183 474.838409,90.869225 471.958374,82.244713 
	C470.941589,78.953598 470.148743,75.572266 468.865936,72.388329 
	C465.069000,62.964214 461.755005,53.250839 456.932190,44.367168 
	C453.574005,38.181339 447.617157,33.817684 439.693665,32.318336 
	C434.943970,28.541121 430.736176,23.421223 425.340851,21.243734 
	C410.410706,15.218088 394.341064,16.826237 379.089386,18.876780 
	C357.580475,21.768576 343.790161,35.440075 337.843842,56.400078 
	C336.045013,62.740730 335.185059,69.355316 334.020569,75.866859 
	C331.166809,91.824585 328.399139,107.797684 325.571960,123.760201 
	C323.410675,135.963211 321.163605,148.151215 319.043243,160.361282 
	C317.177063,171.107559 315.516693,181.889832 313.614075,192.629410 
	C311.510712,204.502304 309.128479,216.326202 307.068665,228.206268 
	C305.430176,237.656113 304.275421,247.190948 302.579834,256.629486 
	C300.241455,269.646698 297.436584,282.580322 295.118896,295.600891 
	C291.380066,316.605316 288.200836,337.713898 284.175995,358.661438 
	C280.519165,377.693390 289.880920,396.338470 308.095734,400.681610 
	C314.313446,409.478516 323.322083,413.244293 333.587402,413.887756 
	C342.034149,414.417236 350.541504,413.979767 359.904907,413.978485 
	C371.747742,413.811127 381.922760,409.261963 391.650421,401.706787 
	C394.526184,398.300995 397.573212,395.023590 400.242615,391.463104 
	C406.073517,383.685699 408.091278,374.566284 409.553162,365.138855 
	C411.775848,350.805237 414.464996,336.542511 417.065765,322.269653 
	C418.238739,315.832336 419.676270,309.443268 421.287598,303.653229 
	C426.129120,313.284821 433.321564,320.161438 444.086700,323.682312 
	C448.608521,330.941437 455.794250,334.704163 463.651428,335.744843 
	C473.583862,337.060364 483.741272,336.718109 493.804810,336.955658 
	C495.202332,336.988617 496.618103,336.248657 498.845551,335.933746 
	C499.994537,335.878296 501.201782,336.033844 502.283539,335.735016 
	C514.068054,332.479736 524.026855,326.296753 531.998169,317.830048 
	C530.995117,323.698059 529.964050,329.561401 528.995300,335.435059 
	C527.299622,345.715912 525.860474,356.044464 523.920776,366.278534 
	C520.446472,384.609009 516.534729,402.856781 513.086548,421.191864 
	C510.673767,434.021362 508.778748,446.947418 506.557709,459.813965 
	C504.786621,470.073853 502.783752,480.294006 501.042542,490.558716 
	C498.498108,505.558594 496.221130,520.604614 493.595856,535.589844 
	C491.227753,549.107300 488.437958,562.550476 486.029449,576.061279 
	C483.446167,590.552490 481.160889,605.096619 478.617310,619.595215 
	C475.817841,635.552368 472.770355,651.466675 470.063843,667.439087 
	C469.406189,671.320251 468.212402,673.170227 463.801575,673.103577 
	C447.149353,672.851929 430.488007,672.804382 413.835754,673.055054 
	C395.109283,673.336914 381.051544,682.044617 370.953735,697.650330 
	C364.975769,706.888977 363.961365,717.559326 362.169006,727.913452 
	C361.003693,734.645386 360.736145,741.677979 361.167664,748.506287 
	C361.790741,758.365540 366.768219,766.329590 375.460480,771.000549 
	C381.050598,774.004517 386.311981,777.136658 390.767487,781.647400 
	C391.789490,782.682190 393.142059,783.426636 394.424072,784.162598 
	C403.032867,789.104797 412.463959,789.383362 422.947296,788.980713 
	C431.959259,788.999329 440.971191,789.017944 449.880463,789.830200 
	C449.609650,790.787292 449.249908,791.729065 449.081024,792.703796 
	C444.819794,817.297974 440.629364,841.904541 436.315247,866.489380 
	C433.657410,881.635620 430.753143,896.738403 428.071838,911.880615 
	C423.805145,935.975647 419.392303,960.048767 415.513397,984.206970 
	C413.341705,997.732544 409.327850,1010.997498 409.926147,1024.961426 
	C410.393280,1035.863892 414.580139,1044.420044 423.746735,1050.432739 
	C428.141846,1053.315552 432.557617,1056.166992 437.307495,1059.615723 
	C440.424744,1061.663818 443.376892,1064.044312 446.693024,1065.692261 
	C454.052429,1069.349609 462.034576,1069.365356 470.959534,1068.950317 
z"/>
<path fill="#17171E" opacity="1.000000" stroke="none" 
	d="
M443.959564,323.000458 
	C433.321564,320.161438 426.129120,313.284821 421.132843,302.949036 
	C417.600037,291.818054 414.280457,281.371399 410.761261,270.992493 
	C410.372620,269.846283 408.842163,269.087280 407.841248,268.148712 
	C407.065948,269.099823 406.171692,269.981140 405.557953,271.027039 
	C405.161011,271.703552 405.135956,272.614990 405.009857,273.431274 
	C400.643402,301.695618 395.855316,329.904480 392.114624,358.251556 
	C390.365570,371.506134 390.610413,385.026825 390.057465,398.431274 
	C390.007690,399.638794 390.737030,400.878448 391.104553,402.103210 
	C381.922760,409.261963 371.747742,413.811127 359.441406,413.560242 
	C358.649384,410.036407 358.297760,406.933014 357.998810,403.824554 
	C357.701508,400.732941 356.768982,399.188049 352.958893,399.694733 
	C346.440674,400.561584 339.812897,400.923492 333.231628,400.917816 
	C324.823456,400.910583 316.415741,400.328308 308.007843,399.993896 
	C289.880920,396.338470 280.519165,377.693390 284.175995,358.661438 
	C288.200836,337.713898 291.380066,316.605316 295.118896,295.600891 
	C297.436584,282.580322 300.241455,269.646698 302.579834,256.629486 
	C304.275421,247.190948 305.430176,237.656113 307.068665,228.206268 
	C309.128479,216.326202 311.510712,204.502304 313.614075,192.629410 
	C315.516693,181.889832 317.177063,171.107559 319.043243,160.361282 
	C321.163605,148.151215 323.410675,135.963211 325.571960,123.760201 
	C328.399139,107.797684 331.166809,91.824585 334.020569,75.866859 
	C335.185059,69.355316 336.045013,62.740730 337.843842,56.400078 
	C343.790161,35.440075 357.580475,21.768576 379.089386,18.876780 
	C394.341064,16.826237 410.410706,15.218088 425.340851,21.243734 
	C430.736176,23.421223 434.943970,28.541121 439.890503,32.973518 
	C441.567566,36.772984 443.347687,39.813274 444.479980,43.078247 
	C452.491791,66.180229 460.363953,89.330635 468.310852,112.455193 
	C468.733643,113.685394 469.429840,114.821625 470.010803,116.384460 
	C476.639587,135.776917 482.671875,155.006622 490.118652,173.703552 
	C490.798523,173.716354 491.478394,173.729141 492.158264,173.741943 
	C494.469421,169.469803 496.780609,165.197678 499.091736,160.925537 
	C505.916321,151.573227 512.853577,142.300674 519.541687,132.851730 
	C532.866699,114.026047 546.053467,95.102516 559.299866,76.221161 
	C567.017944,65.219841 574.652405,54.158470 582.484863,43.239151 
	C591.586426,30.550543 602.816956,20.046879 618.981689,18.789356 
	C632.794800,17.714771 646.860962,18.431454 660.695129,19.682919 
	C668.025635,20.346046 673.974609,25.474031 678.778931,32.089741 
	C679.404419,32.719471 679.727112,32.861839 680.049805,33.004208 
	C680.049805,33.004211 679.994507,33.005569 679.878906,33.356850 
	C685.463135,45.361698 684.638123,57.349571 682.326599,69.690613 
	C678.082947,92.347847 674.417725,115.113419 670.331604,138.156311 
	C667.467041,153.165207 664.699707,167.837112 662.112915,182.540771 
	C654.496399,225.833191 646.943604,269.136841 639.386841,312.439789 
	C638.233826,319.047363 637.192200,325.674408 635.932312,333.302002 
	C643.518738,332.830963 650.239746,332.413666 656.960754,331.996338 
	C666.430420,331.998779 675.900635,331.938812 685.369690,332.016998 
	C703.614441,332.167633 721.720337,333.644623 739.249573,339.076630 
	C753.435608,343.472656 766.592346,349.969604 778.082642,359.557098 
	C778.839478,360.188568 779.716431,360.675934 780.820068,361.774658 
	C781.416931,362.553040 781.731384,362.787140 782.045776,363.021210 
	C782.045776,363.021210 781.983948,363.015594 781.989685,363.333435 
	C785.823303,368.442627 790.013611,372.990906 793.417358,378.066711 
	C809.682312,402.321869 811.452087,429.230865 807.472717,457.147949 
	C804.940613,474.911407 799.461914,491.747711 791.615112,508.170959 
	C787.377869,514.723938 783.900757,521.454529 779.281067,527.278870 
	C772.801636,535.447815 765.472290,542.942688 758.209900,550.840332 
	C746.599426,558.285156 735.285522,565.615662 723.611816,572.998413 
	C711.137390,577.318054 699.022766,581.585388 686.482178,585.874634 
	C674.709717,587.276672 663.363281,588.656860 651.546692,590.020386 
	C639.392517,590.013794 627.708374,590.023804 615.554260,590.022217 
	C608.923279,590.008606 602.761719,590.054382 596.601501,589.985596 
	C593.251587,589.948181 591.507996,591.224487 590.912598,594.769165 
	C588.060730,611.748535 585.004944,628.693848 581.983582,645.644409 
	C580.763306,652.490662 579.415222,659.314087 578.183472,666.158325 
	C577.190979,671.672791 578.317139,672.969849 584.021973,672.998901 
	C588.684204,673.022644 593.346680,672.999756 598.009033,672.997559 
	C610.760376,672.999207 623.514954,672.823120 636.262085,673.056091 
	C647.406311,673.259766 656.820129,677.366699 663.806274,687.210815 
	C667.786682,694.892700 670.958374,702.322937 669.623901,710.485962 
	C667.736633,722.030273 665.152222,733.460571 662.618042,745.169434 
	C657.234375,756.344788 649.210632,764.609070 638.495605,770.793701 
	C628.575500,775.378967 618.417175,776.433655 607.557251,776.096680 
	C597.400024,776.068237 587.710388,776.098816 577.553467,776.084351 
	C572.754272,776.028564 568.416565,776.152771 564.092529,775.963745 
	C560.704407,775.815613 559.464966,777.311951 558.968323,780.548706 
	C557.509338,790.056335 555.745605,799.517212 554.041565,809.402100 
	C550.316711,830.465271 546.581116,851.110657 543.012451,871.784851 
	C540.821777,884.476074 538.886719,897.211548 536.602783,910.223267 
	C532.573730,931.729980 528.687744,952.924805 525.017517,974.157043 
	C522.787781,987.055969 520.891479,1000.012451 518.610596,1013.216309 
	C515.135620,1027.726929 507.529083,1039.125610 495.621460,1048.014526 
	C487.505493,1052.795654 479.249451,1055.964478 469.544037,1056.011230 
	C460.447998,1056.003296 451.814484,1055.810791 443.201294,1056.143677 
	C441.088165,1056.225342 439.041321,1058.023560 436.964020,1059.032593 
	C432.557617,1056.166992 428.141846,1053.315552 423.746735,1050.432739 
	C414.580139,1044.420044 410.393280,1035.863892 409.926147,1024.961426 
	C409.327850,1010.997498 413.341705,997.732544 415.513397,984.206970 
	C419.392303,960.048767 423.805145,935.975647 428.071838,911.880615 
	C430.753143,896.738403 433.657410,881.635620 436.315247,866.489380 
	C440.629364,841.904541 444.819794,817.297974 449.081024,792.703796 
	C449.249908,791.729065 449.609650,790.787292 450.091644,789.074890 
	C450.866089,785.920349 451.556915,783.542542 451.962952,781.116943 
	C452.582245,777.417236 451.281799,775.601929 447.134857,775.924438 
	C442.858276,776.256897 438.535828,775.999756 434.233429,776.000000 
	C425.805969,776.000488 425.847870,776.010132 423.868073,784.433655 
	C423.500336,785.998352 422.643982,787.448181 422.013123,788.950989 
	C412.463959,789.383362 403.032867,789.104797 394.424072,784.162598 
	C393.142059,783.426636 391.789490,782.682190 390.767487,781.647400 
	C386.311981,777.136658 381.050598,774.004517 375.460480,771.000549 
	C366.768219,766.329590 361.790741,758.365540 361.167664,748.506287 
	C360.736145,741.677979 361.003693,734.645386 362.169006,727.913452 
	C363.961365,717.559326 364.975769,706.888977 370.953735,697.650330 
	C381.051544,682.044617 395.109283,673.336914 413.835754,673.055054 
	C430.488007,672.804382 447.149353,672.851929 463.801575,673.103577 
	C468.212402,673.170227 469.406189,671.320251 470.063843,667.439087 
	C472.770355,651.466675 475.817841,635.552368 478.617310,619.595215 
	C481.160889,605.096619 483.446167,590.552490 486.029449,576.061279 
	C488.437958,562.550476 491.227753,549.107300 493.595856,535.589844 
	C496.221130,520.604614 498.498108,505.558594 501.042542,490.558716 
	C502.783752,480.294006 504.786621,470.073853 506.557709,459.813965 
	C508.778748,446.947418 510.673767,434.021362 513.086548,421.191864 
	C516.534729,402.856781 520.446472,384.609009 523.920776,366.278534 
	C525.860474,356.044464 527.299622,345.715912 528.995300,335.435059 
	C529.964050,329.561401 530.995117,323.698059 532.148132,317.062683 
	C536.680481,299.789429 539.209045,282.990662 540.707642,265.966553 
	C533.943909,274.634277 527.716675,283.374969 521.847107,292.349609 
	C515.609192,301.887482 508.441895,310.470337 498.602478,317.005981 
	C487.868286,322.400604 476.892120,324.801147 465.208527,324.033630 
	C458.133453,323.568878 451.043060,323.336975 443.959564,323.000458 
M465.543335,188.986282 
	C458.410828,168.407120 451.260132,147.834244 444.150604,127.247116 
	C436.121521,103.997154 428.144470,80.729218 420.114288,57.479622 
	C416.630157,47.392067 412.783203,44.676228 402.036255,44.615345 
	C396.203552,44.582302 390.370209,44.574364 384.537659,44.619282 
	C371.790955,44.717445 365.214874,50.370926 363.047028,62.902248 
	C359.588074,82.896721 356.103058,102.886757 352.578735,122.869789 
	C347.754974,150.220413 342.868042,177.559891 338.037415,204.909302 
	C331.818665,240.117905 325.606171,275.327637 319.436462,310.544861 
	C316.509674,327.251312 313.312012,343.923676 310.967255,360.713440 
	C309.662201,370.058533 314.414856,374.731689 323.861816,374.977478 
	C330.690094,375.155151 337.527161,375.087097 344.359070,375.012115 
	C355.010498,374.895142 362.003265,369.384583 363.961334,358.751862 
	C368.658997,333.242645 373.036957,307.674591 377.539581,282.129486 
	C383.370789,249.047104 389.191711,215.962906 395.030701,182.881927 
	C396.505096,174.528946 398.031372,166.185150 399.761536,156.571686 
	C401.648468,160.555450 403.221252,163.197693 404.198334,166.044418 
	C413.209503,192.298538 422.125641,218.585297 431.052490,244.868317 
	C435.650543,258.406219 440.115601,271.990234 444.827118,285.488373 
	C448.168304,295.060638 452.258636,297.832367 462.265503,297.928650 
	C465.598297,297.960724 468.950073,297.710236 472.261383,297.979706 
	C483.802246,298.918945 491.749847,293.822693 498.122345,284.402710 
	C518.931274,253.642487 540.109131,223.131729 561.163757,192.537842 
	C568.881042,181.324005 576.650452,170.145966 584.396118,158.951599 
	C585.364929,161.668991 585.736633,164.250671 585.310181,166.692978 
	C576.413635,217.639832 567.423767,268.570404 558.462280,319.505920 
	C557.563110,324.616516 556.728027,329.738373 555.854736,334.905365 
	C574.107788,330.764404 592.017517,334.005981 609.679932,332.484589 
	C610.070068,330.981812 610.496460,329.709930 610.725464,328.403473 
	C617.184814,291.550690 623.593689,254.689072 630.076172,217.840393 
	C635.953064,184.433975 641.906067,151.040970 647.826660,117.642242 
	C651.106140,99.142349 654.449402,80.653473 657.645935,62.139267 
	C659.566406,51.016270 654.390259,44.774174 643.189697,44.530800 
	C638.025879,44.418598 632.825928,44.885059 627.697693,44.444366 
	C616.510864,43.483025 608.896484,48.248558 602.595886,57.331783 
	C575.165222,96.877327 547.378296,136.175842 519.698853,175.548645 
	C507.060791,193.525681 494.371826,211.466873 480.842255,230.648849 
	C474.428223,216.807190 470.785858,203.005234 465.543335,188.986282 
M542.782410,405.258270 
	C539.006836,426.709778 535.247681,448.164154 531.451782,469.612091 
	C525.656250,502.359283 519.834167,535.101807 514.025696,567.846741 
	C509.059296,595.844482 504.077637,623.839539 499.144287,651.843079 
	C497.891785,658.952698 496.797577,666.090210 495.594055,673.437866 
	C514.476685,673.437866 532.585510,673.437866 550.759644,673.437866 
	C550.952942,672.588196 551.125427,671.954346 551.239685,671.310242 
	C557.192932,637.746094 563.250061,604.199768 568.972534,570.596313 
	C569.829468,565.564270 571.860596,563.914246 576.783142,563.957886 
	C597.448181,564.141296 618.119812,564.288574 638.780823,563.949524 
	C650.910950,563.750488 663.127502,563.364075 675.125916,561.738647 
	C699.471436,558.440491 721.889038,549.792236 740.843079,533.776978 
	C772.737366,506.827728 784.326660,471.072083 782.466980,430.770111 
	C781.134033,401.883392 765.847290,381.197540 739.338257,369.185699 
	C725.360779,362.852112 710.528809,359.397064 695.319946,359.228485 
	C652.658936,358.755615 609.990356,358.910583 567.324890,358.954742 
	C556.612122,358.965851 550.071106,364.743561 548.072449,375.429504 
	C546.268982,385.071442 544.619080,394.742065 542.782410,405.258270 
M467.790833,839.207214 
	C464.823273,855.899658 461.859619,872.592712 458.887360,889.284363 
	C453.991760,916.776978 449.054108,944.262207 444.206635,971.763306 
	C441.638306,986.334167 438.915131,1000.888550 436.850098,1015.533325 
	C435.554657,1024.719971 440.422241,1029.719971 449.695679,1029.862671 
	C457.357880,1029.980591 465.023926,1029.958984 472.687012,1029.879517 
	C482.649231,1029.776123 489.828308,1023.973877 491.806610,1014.235901 
	C493.394073,1006.421936 494.697784,998.549255 496.067657,990.692261 
	C500.836029,963.342712 505.537781,935.981506 510.341705,908.638245 
	C515.547058,879.010254 520.819458,849.393921 526.098755,819.779053 
	C529.978394,798.015808 534.025879,776.281616 537.723877,754.487854 
	C538.366272,750.701721 540.177307,749.815491 543.408997,749.937439 
	C544.905823,749.993896 546.407227,749.918823 547.906555,749.919067 
	C571.898132,749.922485 595.889954,749.989807 619.881165,749.905090 
	C630.180603,749.868713 636.960876,744.993713 639.305481,735.383972 
	C641.071350,728.146240 642.366577,720.719910 643.013000,713.302734 
	C643.714966,705.247925 639.275574,700.582153 631.210022,699.670654 
	C629.067261,699.428406 626.893555,699.379089 624.734009,699.379211 
	C563.757507,699.382080 502.781036,699.390015 441.804565,699.432007 
	C430.479340,699.439758 419.139282,699.271423 407.833984,699.791382 
	C399.312408,700.183289 392.832336,706.306946 391.226074,714.580017 
	C389.895721,721.431946 388.768799,728.328369 387.746460,735.233887 
	C386.505096,743.618835 390.471283,748.783997 398.802246,749.744934 
	C401.107971,750.010925 403.460938,749.903870 405.792297,749.904907 
	C429.617310,749.915588 453.442413,749.885559 477.267334,749.934021 
	C483.194946,749.946106 483.268707,750.183777 482.282745,755.818604 
	C477.469543,783.326477 472.678986,810.838257 467.790833,839.207214 
z"/>
<path fill="#686868" opacity="1.000000" stroke="none" 
	d="
M670.511414,137.833832 
	C674.417725,115.113419 678.082947,92.347847 682.326599,69.690613 
	C684.638123,57.349571 685.463135,45.361698 679.886658,33.330334 
	C689.306763,34.155285 699.596130,45.764465 702.048645,56.091980 
	C704.140686,64.901154 702.393433,73.435791 700.911316,82.033897 
	C698.268555,97.365723 695.767578,112.723351 692.966125,128.026047 
	C690.638306,140.741669 687.795288,153.363266 685.490295,166.082687 
	C683.124573,179.137680 681.147766,192.262955 678.975891,205.353348 
	C677.660217,213.283447 676.297180,221.205673 674.515442,229.548096 
	C673.057190,228.560043 671.274353,227.214279 671.160706,225.739868 
	C670.783813,220.850830 671.003113,215.915451 671.002625,210.997849 
	C671.000366,188.596710 671.013489,166.195541 670.979614,143.794449 
	C670.976624,141.807343 670.674561,139.820694 670.511414,137.833832 
z"/>
<path fill="#616161" opacity="1.000000" stroke="none" 
	d="
M670.331604,138.156311 
	C670.674561,139.820694 670.976624,141.807343 670.979614,143.794449 
	C671.013489,166.195541 671.000366,188.596710 671.002625,210.997849 
	C671.003113,215.915451 670.783813,220.850830 671.160706,225.739868 
	C671.274353,227.214279 673.057190,228.560043 674.459106,229.974960 
	C672.901245,240.461288 670.923828,250.930923 669.028320,261.415314 
	C667.131592,271.906525 665.284363,282.406891 663.474487,292.913391 
	C661.280518,305.649841 659.148376,318.396942 656.975098,331.567871 
	C650.239746,332.413666 643.518738,332.830963 635.932312,333.302002 
	C637.192200,325.674408 638.233826,319.047363 639.386841,312.439789 
	C646.943604,269.136841 654.496399,225.833191 662.112915,182.540771 
	C664.699707,167.837112 667.467041,153.165207 670.331604,138.156311 
z"/>
<path fill="#686868" opacity="1.000000" stroke="none" 
	d="
M791.865479,507.944122 
	C799.461914,491.747711 804.940613,474.911407 807.472717,457.147949 
	C811.452087,429.230865 809.682312,402.321869 793.417358,378.066711 
	C790.013611,372.990906 785.823303,368.442627 781.993042,363.302551 
	C790.456421,366.304932 797.520203,371.955811 802.959595,378.851440 
	C809.431274,387.055542 815.547546,395.915985 819.776184,405.402191 
	C823.614868,414.013275 825.658630,423.735077 826.761597,433.169708 
	C827.918579,443.065857 828.015625,453.331024 826.751831,463.201355 
	C825.266846,474.799957 822.070435,486.211700 819.157288,497.586945 
	C815.595093,511.496796 809.184326,524.156189 800.968933,535.906372 
	C798.902405,538.862183 796.776611,541.776489 794.100708,544.585083 
	C793.348938,534.170776 793.226196,523.879944 792.953125,513.592957 
	C792.902893,511.701721 792.243591,509.826660 791.865479,507.944122 
z"/>
<path fill="#1F1F1F" opacity="1.000000" stroke="none" 
	d="
M391.377502,401.904999 
	C390.737030,400.878448 390.007690,399.638794 390.057465,398.431274 
	C390.610413,385.026825 390.365570,371.506134 392.114624,358.251556 
	C395.855316,329.904480 400.643402,301.695618 405.009857,273.431274 
	C405.135956,272.614990 405.161011,271.703552 405.557953,271.027039 
	C406.171692,269.981140 407.065948,269.099823 407.841248,268.148712 
	C408.842163,269.087280 410.372620,269.846283 410.761261,270.992493 
	C414.280457,281.371399 417.600037,291.818054 420.985931,302.638550 
	C419.676270,309.443268 418.238739,315.832336 417.065765,322.269653 
	C414.464996,336.542511 411.775848,350.805237 409.553162,365.138855 
	C408.091278,374.566284 406.073517,383.685699 400.242615,391.463104 
	C397.573212,395.023590 394.526184,398.300995 391.377502,401.904999 
z"/>
<path fill="#454545" opacity="1.000000" stroke="none" 
	d="
M536.836853,909.927124 
	C538.886719,897.211548 540.821777,884.476074 543.012451,871.784851 
	C546.581116,851.110657 550.316711,830.465271 554.414429,809.524170 
	C555.231323,811.097290 555.945190,812.953003 555.950378,814.810669 
	C556.023254,841.111389 555.958191,867.412659 556.092590,893.712830 
	C556.101685,895.498291 557.436340,897.276978 558.154419,899.058777 
	C556.210632,910.533569 554.240540,922.004028 552.331482,933.484619 
	C550.848755,942.400940 549.547241,951.348511 547.974609,960.248474 
	C546.031250,971.246155 543.872925,982.205688 541.848022,993.189148 
	C541.343018,995.928650 540.994080,998.696960 540.133667,1001.377808 
	C539.129272,997.050110 538.103638,992.799561 538.076172,988.542603 
	C537.919312,964.217957 538.025635,939.891602 537.949768,915.566162 
	C537.943909,913.685303 537.224548,911.806763 536.836853,909.927124 
z"/>
<path fill="#272727" opacity="1.000000" stroke="none" 
	d="
M598.007202,672.571960 
	C593.346680,672.999756 588.684204,673.022644 584.021973,672.998901 
	C578.317139,672.969849 577.190979,671.672791 578.183472,666.158325 
	C579.415222,659.314087 580.763306,652.490662 581.983582,645.644409 
	C585.004944,628.693848 588.060730,611.748535 590.912598,594.769165 
	C591.507996,591.224487 593.251587,589.948181 596.601501,589.985596 
	C602.761719,590.054382 608.923279,590.008606 615.486694,590.395630 
	C614.939819,594.818848 613.990417,598.856934 613.040955,602.895081 
	C611.730591,604.409302 609.556030,605.763367 609.241150,607.462036 
	C605.342346,628.496643 601.712769,649.581116 598.026855,670.655090 
	C597.942261,671.138611 598.009155,671.648682 598.007202,672.571960 
z"/>
<path fill="#404040" opacity="1.000000" stroke="none" 
	d="
M536.602783,910.223267 
	C537.224548,911.806763 537.943909,913.685303 537.949768,915.566162 
	C538.025635,939.891602 537.919312,964.217957 538.076172,988.542603 
	C538.103638,992.799561 539.129272,997.050110 539.854309,1001.667358 
	C539.996399,1002.197693 539.978088,1002.364319 539.583496,1002.856323 
	C539.154358,1004.820251 539.101562,1006.458801 539.048706,1008.097351 
	C537.630310,1021.513916 536.164490,1034.937378 528.201111,1046.474976 
	C526.630249,1048.750977 524.515381,1050.651367 522.018677,1052.677002 
	C520.923889,1050.774658 520.088440,1048.925293 520.062561,1047.064697 
	C519.928040,1037.405396 520.055786,1027.742676 519.948059,1018.082642 
	C519.928833,1016.365601 519.230347,1014.656128 518.845459,1012.943115 
	C520.891479,1000.012451 522.787781,987.055969 525.017517,974.157043 
	C528.687744,952.924805 532.573730,931.729980 536.602783,910.223267 
z"/>
<path fill="#4B4B4B" opacity="1.000000" stroke="none" 
	d="
M558.438354,898.803467 
	C557.436340,897.276978 556.101685,895.498291 556.092590,893.712830 
	C555.958191,867.412659 556.023254,841.111389 555.950378,814.810669 
	C555.945190,812.953003 555.231323,811.097290 554.474060,809.118530 
	C555.745605,799.517212 557.509338,790.056335 558.968323,780.548706 
	C559.464966,777.311951 560.704407,775.815613 564.092529,775.963745 
	C568.416565,776.152771 572.754272,776.028564 577.486328,776.455078 
	C575.513977,782.161560 575.022461,787.545471 577.084778,793.055969 
	C574.845764,805.805359 572.536072,818.542847 570.391296,831.308044 
	C568.815369,840.687256 567.515625,850.112671 565.975708,859.498230 
	C565.103027,864.817566 563.981262,870.095642 562.995117,875.396667 
	C561.559814,883.111755 560.145569,890.830750 558.438354,898.803467 
z"/>
<path fill="#6F6F6F" opacity="1.000000" stroke="none" 
	d="
M662.865784,744.939636 
	C665.152222,733.460571 667.736633,722.030273 669.623901,710.485962 
	C670.958374,702.322937 667.786682,694.892700 664.075317,687.413452 
	C682.461243,692.187927 690.102112,709.559387 687.439697,726.001099 
	C686.053650,734.560913 684.872681,743.178833 682.934998,751.618042 
	C680.464355,762.377808 674.058044,770.816040 665.321045,777.532959 
	C664.657959,768.361328 664.381287,759.457092 663.958069,750.559937 
	C663.868347,748.673462 663.243835,746.812378 662.865784,744.939636 
z"/>
<path fill="#3D3D3D" opacity="1.000000" stroke="none" 
	d="
M498.959930,316.946472 
	C508.441895,310.470337 515.609192,301.887482 521.847107,292.349609 
	C527.716675,283.374969 533.943909,274.634277 540.707642,265.966553 
	C539.209045,282.990662 536.680481,299.789429 532.149353,316.640137 
	C524.026855,326.296753 514.068054,332.479736 502.283539,335.735016 
	C501.201782,336.033844 499.994537,335.878296 498.427063,335.445679 
	C498.325714,328.953918 498.642822,322.950195 498.959930,316.946472 
z"/>
<path fill="#5F5F5F" opacity="1.000000" stroke="none" 
	d="
M791.615112,508.170959 
	C792.243591,509.826660 792.902893,511.701721 792.953125,513.592957 
	C793.226196,523.879944 793.348938,534.170776 793.815369,544.769348 
	C784.756470,557.030090 773.639771,567.009888 760.364868,574.571167 
	C760.006531,568.010376 760.106934,561.851379 759.931641,555.700195 
	C759.883972,554.029907 759.004272,552.383362 758.506470,550.725891 
	C765.472290,542.942688 772.801636,535.447815 779.281067,527.278870 
	C783.900757,521.454529 787.377869,514.723938 791.615112,508.170959 
z"/>
<path fill="#343434" opacity="1.000000" stroke="none" 
	d="
M499.020874,160.553101 
	C496.780609,165.197678 494.469421,169.469803 492.158264,173.741943 
	C491.478394,173.729141 490.798523,173.716354 490.118652,173.703552 
	C482.671875,155.006622 476.639587,135.776917 470.179657,116.002029 
	C470.383545,106.145058 470.362122,97.052048 470.540344,87.962944 
	C470.572784,86.309105 471.421143,84.671272 471.892822,83.026054 
	C474.838409,90.869225 477.912079,98.667183 480.700226,106.565926 
	C485.124084,119.098511 489.372589,131.693176 493.663452,144.272430 
	C495.467407,149.560913 497.190247,154.877060 499.020874,160.553101 
z"/>
<path fill="#2E2E2E" opacity="1.000000" stroke="none" 
	d="
M471.925598,82.635384 
	C471.421143,84.671272 470.572784,86.309105 470.540344,87.962944 
	C470.362122,97.052048 470.383545,106.145058 470.167603,115.619164 
	C469.429840,114.821625 468.733643,113.685394 468.310852,112.455193 
	C460.363953,89.330635 452.491791,66.180229 444.479980,43.078247 
	C443.347687,39.813274 441.567566,36.772984 440.046326,33.264435 
	C447.617157,33.817684 453.574005,38.181339 456.932190,44.367168 
	C461.755005,53.250839 465.069000,62.964214 468.865936,72.388329 
	C470.148743,75.572266 470.941589,78.953598 471.925598,82.635384 
z"/>
<path fill="#545454" opacity="1.000000" stroke="none" 
	d="
M758.209900,550.840332 
	C759.004272,552.383362 759.883972,554.029907 759.931641,555.700195 
	C760.106934,561.851379 760.006531,568.010376 760.016602,574.645142 
	C752.357117,579.441406 744.791138,583.952637 736.982056,587.994202 
	C733.132874,589.986328 728.834534,591.110474 724.370728,592.318359 
	C723.991882,585.654968 723.981750,579.300537 723.971619,572.946106 
	C735.285522,565.615662 746.599426,558.285156 758.209900,550.840332 
z"/>
<path fill="#393939" opacity="1.000000" stroke="none" 
	d="
M518.610657,1013.216309 
	C519.230347,1014.656128 519.928833,1016.365601 519.948059,1018.082642 
	C520.055786,1027.742676 519.928040,1037.405396 520.062561,1047.064697 
	C520.088440,1048.925293 520.923889,1050.774658 521.728699,1052.842041 
	C517.587219,1059.608398 510.816406,1062.935059 503.800873,1065.843384 
	C501.561523,1066.771729 499.134369,1067.246948 496.400452,1067.447388 
	C495.995026,1060.628296 495.982300,1054.291382 495.969574,1047.954468 
	C507.529083,1039.125610 515.135620,1027.726929 518.610657,1013.216309 
z"/>
<path fill="#323232" opacity="1.000000" stroke="none" 
	d="
M498.602478,317.005981 
	C498.642822,322.950195 498.325714,328.953918 498.017029,335.412079 
	C496.618103,336.248657 495.202332,336.988617 493.804810,336.955658 
	C483.741272,336.718109 473.583862,337.060364 463.651428,335.744843 
	C455.794250,334.704163 448.608521,330.941437 444.023132,323.341370 
	C451.043060,323.336975 458.133453,323.568878 465.208527,324.033630 
	C476.892120,324.801147 487.868286,322.400604 498.602478,317.005981 
z"/>
<path fill="#494949" opacity="1.000000" stroke="none" 
	d="
M723.611816,572.998413 
	C723.981750,579.300537 723.991882,585.654968 724.011963,592.423950 
	C711.992432,597.105103 699.708435,600.204102 686.529785,600.489685 
	C686.404297,595.316833 686.656250,590.584778 686.908203,585.852722 
	C699.022766,581.585388 711.137390,577.318054 723.611816,572.998413 
z"/>
<path fill="#686868" opacity="1.000000" stroke="none" 
	d="
M662.618042,745.169434 
	C663.243835,746.812378 663.868347,748.673462 663.958069,750.559937 
	C664.381287,759.457092 664.657959,768.361328 665.008911,777.694336 
	C657.476685,784.588745 648.398071,787.358582 638.421631,788.472412 
	C638.297180,782.241577 638.580322,776.478760 638.863464,770.716003 
	C649.210632,764.609070 657.234375,756.344788 662.618042,745.169434 
z"/>
<path fill="#0F0F0F" opacity="1.000000" stroke="none" 
	d="
M308.051788,400.337769 
	C316.415741,400.328308 324.823456,400.910583 333.231628,400.917816 
	C339.812897,400.923492 346.440674,400.561584 352.958893,399.694733 
	C356.768982,399.188049 357.701508,400.732941 357.998810,403.824554 
	C358.297760,406.933014 358.649384,410.036407 358.999969,413.556396 
	C350.541504,413.979767 342.034149,414.417236 333.587402,413.887756 
	C323.322083,413.244293 314.313446,409.478516 308.051788,400.337769 
z"/>
<path fill="#3E3E3E" opacity="1.000000" stroke="none" 
	d="
M686.482178,585.874634 
	C686.656250,590.584778 686.404297,595.316833 686.090454,600.447021 
	C681.837463,601.564758 677.666138,602.714783 673.451050,602.907837 
	C666.302612,603.235229 659.126587,602.958740 651.503174,602.495972 
	C651.368347,598.049622 651.692566,594.043274 652.016785,590.036987 
	C663.363281,588.656860 674.709717,587.276672 686.482178,585.874634 
z"/>
<path fill="#343434" opacity="1.000000" stroke="none" 
	d="
M651.546692,590.020386 
	C651.692566,594.043274 651.368347,598.049622 651.037720,602.461365 
	C638.676941,602.895203 626.322693,602.923645 613.504639,602.923584 
	C613.990417,598.856934 614.939819,594.818848 615.956787,590.407288 
	C627.708374,590.023804 639.392517,590.013794 651.546692,590.020386 
z"/>
<path fill="#5F5F5F" opacity="1.000000" stroke="none" 
	d="
M638.495605,770.793701 
	C638.580322,776.478760 638.297180,782.241577 638.016785,788.420105 
	C627.330933,788.868164 616.642395,788.900452 605.498291,788.485840 
	C606.036804,784.077820 607.030823,780.116760 608.024902,776.155640 
	C618.417175,776.433655 628.575500,775.378967 638.495605,770.793701 
z"/>
<path fill="#313131" opacity="1.000000" stroke="none" 
	d="
M495.621460,1048.014526 
	C495.982300,1054.291382 495.995026,1060.628296 496.015381,1067.421631 
	C487.668549,1068.235596 479.314026,1068.593018 470.484192,1068.473022 
	C470.010590,1064.003784 470.012329,1060.011963 470.014069,1056.020020 
	C479.249451,1055.964478 487.505493,1052.795654 495.621460,1048.014526 
z"/>
<path fill="#545454" opacity="1.000000" stroke="none" 
	d="
M607.557251,776.096680 
	C607.030823,780.116760 606.036804,784.077820 605.033813,788.434692 
	C597.489319,788.882568 589.952454,789.032715 582.418823,788.935364 
	C579.664551,788.899780 578.023621,789.748840 577.369507,792.810059 
	C575.022461,787.545471 575.513977,782.161560 577.953735,776.500061 
	C587.710388,776.098816 597.400024,776.068237 607.557251,776.096680 
z"/>
<path fill="#1F1F1F" opacity="1.000000" stroke="none" 
	d="
M422.480225,788.965820 
	C422.643982,787.448181 423.500336,785.998352 423.868073,784.433655 
	C425.847870,776.010132 425.805969,776.000488 434.233429,776.000000 
	C438.535828,775.999756 442.858276,776.256897 447.134857,775.924438 
	C451.281799,775.601929 452.582245,777.417236 451.962952,781.116943 
	C451.556915,783.542542 450.866089,785.920349 450.143005,788.678101 
	C440.971191,789.017944 431.959259,788.999329 422.480225,788.965820 
z"/>
<path fill="#272727" opacity="1.000000" stroke="none" 
	d="
M469.544037,1056.011230 
	C470.012329,1060.011963 470.010590,1064.003784 470.017883,1068.448730 
	C462.034576,1069.365356 454.052429,1069.349609 446.693024,1065.692261 
	C443.376892,1064.044312 440.424744,1061.663818 437.135742,1059.324219 
	C439.041321,1058.023560 441.088165,1056.225342 443.201294,1056.143677 
	C451.814484,1055.810791 460.447998,1056.003296 469.544037,1056.011230 
z"/>
<path fill="#454545" opacity="1.000000" stroke="none" 
	d="
M539.330933,1007.840942 
	C539.101562,1006.458801 539.154358,1004.820251 539.531616,1003.102295 
	C539.775024,1004.543457 539.694092,1006.064026 539.330933,1007.840942 
z"/>
<path fill="#686868" opacity="1.000000" stroke="none" 
	d="
M781.937500,362.752075 
	C781.731384,362.787140 781.416931,362.553040 781.033081,362.014709 
	C781.252197,361.967926 781.540649,362.225433 781.937500,362.752075 
z"/>
<path fill="#686868" opacity="1.000000" stroke="none" 
	d="
M679.970093,32.753624 
	C679.727112,32.861839 679.404419,32.719471 679.044617,32.290932 
	C679.301758,32.170856 679.596069,32.336952 679.970093,32.753624 
z"/>
<path fill="#2dd4bf" opacity="1.000000" stroke="none" 
	d="
M465.685059,189.355377 
	C470.785858,203.005234 474.428223,216.807190 480.842255,230.648849 
	C494.371826,211.466873 507.060791,193.525681 519.698853,175.548645 
	C547.378296,136.175842 575.165222,96.877327 602.595886,57.331783 
	C608.896484,48.248558 616.510864,43.483025 627.697693,44.444366 
	C632.825928,44.885059 638.025879,44.418598 643.189697,44.530800 
	C654.390259,44.774174 659.566406,51.016270 657.645935,62.139267 
	C654.449402,80.653473 651.106140,99.142349 647.826660,117.642242 
	C641.906067,151.040970 635.953064,184.433975 630.076172,217.840393 
	C623.593689,254.689072 617.184814,291.550690 610.725464,328.403473 
	C610.496460,329.709930 610.070068,330.981812 609.679932,332.484589 
	C592.017517,334.005981 574.107788,330.764404 555.854736,334.905365 
	C556.728027,329.738373 557.563110,324.616516 558.462280,319.505920 
	C567.423767,268.570404 576.413635,217.639832 585.310181,166.692978 
	C585.736633,164.250671 585.364929,161.668991 584.396118,158.951599 
	C576.650452,170.145966 568.881042,181.324005 561.163757,192.537842 
	C540.109131,223.131729 518.931274,253.642487 498.122345,284.402710 
	C491.749847,293.822693 483.802246,298.918945 472.261383,297.979706 
	C468.950073,297.710236 465.598297,297.960724 462.265503,297.928650 
	C452.258636,297.832367 448.168304,295.060638 444.827118,285.488373 
	C440.115601,271.990234 435.650543,258.406219 431.052490,244.868317 
	C422.125641,218.585297 413.209503,192.298538 404.198334,166.044418 
	C403.221252,163.197693 401.648468,160.555450 399.761536,156.571686 
	C398.031372,166.185150 396.505096,174.528946 395.030701,182.881927 
	C389.191711,215.962906 383.370789,249.047104 377.539581,282.129486 
	C373.036957,307.674591 368.658997,333.242645 363.961334,358.751862 
	C362.003265,369.384583 355.010498,374.895142 344.359070,375.012115 
	C337.527161,375.087097 330.690094,375.155151 323.861816,374.977478 
	C314.414856,374.731689 309.662201,370.058533 310.967255,360.713440 
	C313.312012,343.923676 316.509674,327.251312 319.436462,310.544861 
	C325.606171,275.327637 331.818665,240.117905 338.037415,204.909302 
	C342.868042,177.559891 347.754974,150.220413 352.578735,122.869789 
	C356.103058,102.886757 359.588074,82.896721 363.047028,62.902248 
	C365.214874,50.370926 371.790955,44.717445 384.537659,44.619282 
	C390.370209,44.574364 396.203552,44.582302 402.036255,44.615345 
	C412.783203,44.676228 416.630157,47.392067 420.114288,57.479622 
	C428.144470,80.729218 436.121521,103.997154 444.150604,127.247116 
	C451.260132,147.834244 458.410828,168.407120 465.685059,189.355377 
z"/>
<path fill="#2dd4bf" opacity="1.000000" stroke="none" 
	d="
M542.841919,404.829163 
	C544.619080,394.742065 546.268982,385.071442 548.072449,375.429504 
	C550.071106,364.743561 556.612122,358.965851 567.324890,358.954742 
	C609.990356,358.910583 652.658936,358.755615 695.319946,359.228485 
	C710.528809,359.397064 725.360779,362.852112 739.338257,369.185699 
	C765.847290,381.197540 781.134033,401.883392 782.466980,430.770111 
	C784.326660,471.072083 772.737366,506.827728 740.843079,533.776978 
	C721.889038,549.792236 699.471436,558.440491 675.125916,561.738647 
	C663.127502,563.364075 650.910950,563.750488 638.780823,563.949524 
	C618.119812,564.288574 597.448181,564.141296 576.783142,563.957886 
	C571.860596,563.914246 569.829468,565.564270 568.972534,570.596313 
	C563.250061,604.199768 557.192932,637.746094 551.239685,671.310242 
	C551.125427,671.954346 550.952942,672.588196 550.759644,673.437866 
	C532.585510,673.437866 514.476685,673.437866 495.594055,673.437866 
	C496.797577,666.090210 497.891785,658.952698 499.144287,651.843079 
	C504.077637,623.839539 509.059296,595.844482 514.025696,567.846741 
	C519.834167,535.101807 525.656250,502.359283 531.451782,469.612091 
	C535.247681,448.164154 539.006836,426.709778 542.841919,404.829163 
M720.422241,478.833221 
	C722.527039,469.300781 725.573364,459.862671 726.540222,450.216187 
	C728.535156,430.313080 717.541321,414.986023 698.212891,410.123322 
	C690.714539,408.236877 682.818481,407.243347 675.082764,407.116852 
	C651.777466,406.735840 628.461975,406.981812 605.150452,406.981354 
	C597.540466,406.981232 597.359009,407.318085 596.063354,414.804932 
	C592.891357,433.134003 589.514221,451.427399 586.270813,469.744202 
	C583.837830,483.484528 581.447205,497.232635 579.128296,510.992554 
	C578.690613,513.589417 578.726501,516.052307 582.611816,516.003601 
	C611.238159,515.644470 639.935852,516.484314 668.470398,514.698181 
	C691.736572,513.241943 710.254272,502.057617 720.422241,478.833221 
z"/>
<path fill="#2dd4bf" opacity="1.000000" stroke="none" 
	d="
M467.835632,838.777954 
	C472.678986,810.838257 477.469543,783.326477 482.282745,755.818604 
	C483.268707,750.183777 483.194946,749.946106 477.267334,749.934021 
	C453.442413,749.885559 429.617310,749.915588 405.792297,749.904907 
	C403.460938,749.903870 401.107971,750.010925 398.802246,749.744934 
	C390.471283,748.783997 386.505096,743.618835 387.746460,735.233887 
	C388.768799,728.328369 389.895721,721.431946 391.226074,714.580017 
	C392.832336,706.306946 399.312408,700.183289 407.833984,699.791382 
	C419.139282,699.271423 430.479340,699.439758 441.804565,699.432007 
	C502.781036,699.390015 563.757507,699.382080 624.734009,699.379211 
	C626.893555,699.379089 629.067261,699.428406 631.210022,699.670654 
	C639.275574,700.582153 643.714966,705.247925 643.013000,713.302734 
	C642.366577,720.719910 641.071350,728.146240 639.305481,735.383972 
	C636.960876,744.993713 630.180603,749.868713 619.881165,749.905090 
	C595.889954,749.989807 571.898132,749.922485 547.906555,749.919067 
	C546.407227,749.918823 544.905823,749.993896 543.408997,749.937439 
	C540.177307,749.815491 538.366272,750.701721 537.723877,754.487854 
	C534.025879,776.281616 529.978394,798.015808 526.098755,819.779053 
	C520.819458,849.393921 515.547058,879.010254 510.341705,908.638245 
	C505.537781,935.981506 500.836029,963.342712 496.067657,990.692261 
	C494.697784,998.549255 493.394073,1006.421936 491.806610,1014.235901 
	C489.828308,1023.973877 482.649231,1029.776123 472.687012,1029.879517 
	C465.023926,1029.958984 457.357880,1029.980591 449.695679,1029.862671 
	C440.422241,1029.719971 435.554657,1024.719971 436.850098,1015.533325 
	C438.915131,1000.888550 441.638306,986.334167 444.206635,971.763306 
	C449.054108,944.262207 453.991760,916.776978 458.887360,889.284363 
	C461.859619,872.592712 464.823273,855.899658 467.835632,838.777954 
z"/>
<path fill="#17171E" opacity="1.000000" stroke="none" 
	d="
M720.260986,479.180878 
	C710.254272,502.057617 691.736572,513.241943 668.470398,514.698181 
	C639.935852,516.484314 611.238159,515.644470 582.611816,516.003601 
	C578.726501,516.052307 578.690613,513.589417 579.128296,510.992554 
	C581.447205,497.232635 583.837830,483.484528 586.270813,469.744202 
	C589.514221,451.427399 592.891357,433.134003 596.063354,414.804932 
	C597.359009,407.318085 597.540466,406.981232 605.150452,406.981354 
	C628.461975,406.981812 651.777466,406.735840 675.082764,407.116852 
	C682.818481,407.243347 690.714539,408.236877 698.212891,410.123322 
	C717.541321,414.986023 728.535156,430.313080 726.540222,450.216187 
	C725.573364,459.862671 722.527039,469.300781 720.260986,479.180878 
M648.072083,432.986908 
	C640.256165,432.988586 632.435303,433.155487 624.626282,432.924652 
	C620.507507,432.802887 618.595642,434.346985 617.946594,438.419373 
	C616.515137,447.400696 614.717834,456.323029 613.163208,465.285645 
	C612.032776,471.802734 610.834167,478.323517 610.163818,484.893463 
	C610.004395,486.456268 611.794312,489.634430 612.758118,489.662689 
	C618.504456,489.831177 624.271423,489.293945 630.964844,488.999756 
	C636.957703,489.001404 642.953857,489.130737 648.942566,488.973755 
	C657.228088,488.756561 665.576843,488.875214 673.773499,487.849976 
	C685.148621,486.427185 694.003479,480.634186 696.808350,468.965637 
	C698.507385,461.897552 698.333679,454.379303 699.039062,446.273590 
	C698.551392,438.739380 692.741150,435.864136 686.955688,435.209198 
	C674.385559,433.786224 661.667786,433.667755 648.072083,432.986908 
z"/>
<path fill="none" opacity="0" stroke="none" 
	d="
M699.001282,447.063293 
	C698.333679,454.379303 698.507385,461.897552 696.808350,468.965637 
	C694.003479,480.634186 685.148621,486.427185 673.773499,487.849976 
	C665.576843,488.875214 657.228088,488.756561 648.942566,488.973755 
	C642.953857,489.130737 636.957703,489.001404 630.488281,488.571655 
	C631.901794,477.273773 633.647278,466.376221 635.726013,455.542694 
	C637.516235,446.212463 637.684265,446.244690 647.497925,445.935181 
	C664.975647,446.330811 681.988464,446.697052 699.001282,447.063293 
z"/>
<path fill="#313131" opacity="1.000000" stroke="none" 
	d="
M647.033081,445.905823 
	C637.684265,446.244690 637.516235,446.212463 635.726013,455.542694 
	C633.647278,466.376221 631.901794,477.273773 630.021606,488.568542 
	C624.271423,489.293945 618.504456,489.831177 612.758118,489.662689 
	C611.794312,489.634430 610.004395,486.456268 610.163818,484.893463 
	C610.834167,478.323517 612.032776,471.802734 613.163208,465.285645 
	C614.717834,456.323029 616.515137,447.400696 617.946594,438.419373 
	C618.595642,434.346985 620.507507,432.802887 624.626282,432.924652 
	C632.435303,433.155487 640.256165,432.988586 648.537720,433.435455 
	C648.346558,437.891266 647.689819,441.898560 647.033081,445.905823 
z"/>
<path fill="#3E3E3E" opacity="1.000000" stroke="none" 
	d="
M647.497925,445.935181 
	C647.689819,441.898560 648.346558,437.891266 649.006836,433.450012 
	C661.667786,433.667755 674.385559,433.786224 686.955688,435.209198 
	C692.741150,435.864136 698.551392,438.739380 699.020142,446.668457 
	C681.988464,446.697052 664.975647,446.330811 647.497925,445.935181 
z"/>
</svg>